<?xml version="1.0" encoding="UTF-8" standalone="no"?>
<!-- Uploaded to: SVG Repo, www.svgrepo.com, Generator: SVG Repo Mixer Tools -->

<svg
   width="32.121597"
   height="33.999996"
   viewBox="0 0 41.115645 43.519995"
   class="icon"
   version="1.1"
   id="svg12"
   sodipodi:docname="cherry.svg"
   inkscape:version="1.1.2 (0a00cf5339, 2022-02-04)"
   xmlns:inkscape="http://www.inkscape.org/namespaces/inkscape"
   xmlns:sodipodi="http://sodipodi.sourceforge.net/DTD/sodipodi-0.dtd"
   xmlns="http://www.w3.org/2000/svg"
   xmlns:svg="http://www.w3.org/2000/svg">
  <defs
     id="defs16" />
  <sodipodi:namedview
     id="namedview14"
     pagecolor="#ffffff"
     bordercolor="#666666"
     borderopacity="1.0"
     inkscape:pageshadow="2"
     inkscape:pageopacity="0.0"
     inkscape:pagecheckerboard="0"
     showgrid="false"
     inkscape:zoom="1.07375"
     inkscape:cx="16.298021"
     inkscape:cy="17.694994"
     inkscape:window-width="1920"
     inkscape:window-height="1011"
     inkscape:window-x="0"
     inkscape:window-y="32"
     inkscape:window-maximized="1"
     inkscape:current-layer="svg12" />
  <path
     d="m 40.471822,28.065613 c -4.68664,-14.17421 -15.43161,-3.77216 -15.43161,-3.77216 0,0 -1.486,0.1143 -3.20062,0.68584 -3.65787,-3.54355 -10.51636,-1.37169 -10.51636,-1.37169 0,0 -12.6881998,-4.22941 -11.20219976,9.94481 0.68585,6.05833 5.37248996,9.94481 11.88804976,9.94481 3.31494,0 6.17264,-1.02878 8.23019,-2.7434 3.42925,3.08632 8.45881,3.65786 13.48836,1.3717 6.17265,-2.7434 8.68742,-8.23019 6.74419,-14.05991 z"
     fill="#ff1744"
     id="path2"
     style="stroke-width:0.0535819" />
  <path
     d="m 27.097762,34.695493 c -0.45723,-4.45802 3.08632,-12.5739 6.05833,-14.05991 -4.11509,-0.1143 -8.11588,3.65787 -8.11588,3.65787 0,0 -1.37169,0.1143 -3.08632,0.68584 -0.1143,-0.1143 -0.22861,-0.1143 -0.34292,-0.1143 1.60031,1.486 2.62909,4.2294 2.17185,8.68742 -0.34292,2.97201 -1.60031,5.37248 -3.54355,7.0871 1.71462,1.60032 5.82972,4.57233 13.48836,1.48601 -3.54355,-0.68585 -6.17264,-2.97201 -6.62987,-7.43003 z"
     fill="#d50000"
     id="path4"
     style="stroke-width:0.0535819" />
  <path
     d="m 4.6933622,34.238263 c -0.45723,0 -1.02877,-0.34293 -1.14308,-0.91447 -1.14308,-4.68663 1.60031,-6.62987 2.7434,-7.31572 0.57154,-0.34293 1.25739,-0.11431 1.486,0.45723 0.34293,0.57154 0.11431,1.25739 -0.45723,1.48601 -1.14308,0.57154 -2.28616,1.82893 -1.60031,4.68663 0.1143,0.57154 -0.22862,1.25739 -0.80016,1.3717 -0.11431,0.22862 -0.11431,0.22862 -0.22862,0.22862 z"
     fill="#ffcdd2"
     id="path6"
     style="stroke-width:0.0535819" />
  <path
     d="m 26.068992,22.121593 c -0.11431,-0.34292 -0.22862,-0.57154 -0.34293,-0.91446 0,-0.11431 -0.1143,-0.22862 -0.1143,-0.34293 -0.11431,-0.22862 -0.11431,-0.45723 -0.22862,-0.57154 -0.11431,-0.22862 -0.11431,-0.34292 -0.22862,-0.57154 -0.11431,-0.22862 -0.11431,-0.34293 -0.11431,-0.57154 -0.1143,-0.22862 -0.1143,-0.45723 -0.22861,-0.57154 -0.11431,-0.22862 -0.11431,-0.45724 -0.22862,-0.68585 0,-0.11431 -0.11431,-0.22862 -0.11431,-0.34293 -0.1143,-0.22861 -0.1143,-0.45723 -0.1143,-0.68584 0,-0.11431 0,-0.22862 -0.11431,-0.34293 0,-0.22862 -0.11431,-0.45723 -0.11431,-0.68585 0,-0.11431 0,-0.22861 -0.11431,-0.34292 0,-0.22862 -0.11431,-0.45724 -0.11431,-0.68585 v -0.22862 -0.68585 -0.34292 -0.68585 -0.22862 -0.68585 -0.22861 -0.57154 -0.34293 -0.45723 -0.34292 -0.3429295 c 0,-0.11431 0,-0.22862 0.11431,-0.45723 v -0.22862 c 0,-0.11431 0.11431,-0.34292 0.11431,-0.45723 v -0.22862 c 0,-0.22861 0.11431,-0.34292 0.11431,-0.57154 v -0.11431 c 0,-0.22861 0.11431,-0.34292 0.11431,-0.57154 0.68584,-2.40047 1.82893,-4.00078 2.28616,-4.57232 0.11431,0 0.22861,-0.11431 0.22861,-0.11431 0.57155,-0.22862 0.80016,-0.91447 0.57155,-1.48601003 -0.22862,-0.57154 -0.57155,-1.02877 -1.14309,-0.80015 0,0 -0.1143,0 -0.1143,0.1143 -0.11431,0 -0.22862,0 -0.34293,0.11431 -0.11431,0 -0.11431,0.11431 -0.22861,0.22862 C 9.7229222,7.7187635 10.294462,25.093603 10.294462,25.207913 c 0,0.57154 0.57154,1.14308 1.14308,1.14308 0.68585,0 1.14308,-0.57154 1.14308,-1.14308 0,-0.11431 -0.45723,-13.37405 10.51636,-20.8040795 -1.71463,4.2294 -3.08633,11.5451195 2.17185,21.3756195 0.22862,0.34293 0.57154,0.57154 1.02877,0.57154 0.22862,0 0.34293,0 0.57154,-0.11431 0.45724,-0.22861 0.68585,-0.68584 0.57155,-1.14308 0,-0.11431 -0.11431,-0.34292 -0.11431,-0.45723 -0.22862,-0.45723 -0.45724,-0.91446 -0.68585,-1.25739 v -0.11431 c -0.22862,-0.34292 -0.45723,-0.80015 -0.57154,-1.14308 z"
     fill="#795548"
     id="path8"
     style="stroke-width:0.0535819" />
  <path
     d="M 36.585342,14.920183 C 34.527792,12.748323 39.900282,0.06012347 26.297602,0.06012347 18.524652,15.148793 36.585342,14.920183 36.585342,14.920183 Z"
     fill="#4caf50"
     id="path10"
     style="stroke-width:0.0535819" />
</svg>
