<?xml version="1.0" encoding="UTF-8" standalone="no"?>
<!-- Uploaded to: SVG Repo, www.svgrepo.com, Generator: SVG Repo Mixer Tools -->

<svg
   height="34.000126"
   width="27.807716"
   version="1.1"
   id="Layer_1"
   viewBox="0 0 17.796799 21.759911"
   xml:space="preserve"
   sodipodi:docname="fig.svg"
   inkscape:version="1.1.2 (0a00cf5339, 2022-02-04)"
   xmlns:inkscape="http://www.inkscape.org/namespaces/inkscape"
   xmlns:sodipodi="http://sodipodi.sourceforge.net/DTD/sodipodi-0.dtd"
   xmlns="http://www.w3.org/2000/svg"
   xmlns:svg="http://www.w3.org/2000/svg"><defs
   id="defs123" /><sodipodi:namedview
   id="namedview121"
   pagecolor="#ffffff"
   bordercolor="#666666"
   borderopacity="1.0"
   inkscape:pageshadow="2"
   inkscape:pageopacity="0.0"
   inkscape:pagecheckerboard="0"
   showgrid="false"
   inkscape:zoom="0.536875"
   inkscape:cx="15.832363"
   inkscape:cy="111.75786"
   inkscape:window-width="1920"
   inkscape:window-height="1011"
   inkscape:window-x="0"
   inkscape:window-y="1472"
   inkscape:window-maximized="1"
   inkscape:current-layer="Layer_1" />
<path
   style="fill:#8f687a;stroke-width:0.0424999"
   d="M 13.34248,6.08242 C 12.01189,4.91146 10.25124,2.95086 9.98502,0.60291 9.94632,0.25959 9.65697,4e-5 9.31157,4e-5 H 8.89545 8.75265 8.33654 C 7.99322,4e-5 7.70193,0.25611 7.66372,0.59721 7.37799,3.14206 5.33634,5.23178 3.98595,6.35582 3.56507,6.61949 3.17003,6.91665 2.80356,7.2422 2.79186,7.2502 2.78436,7.2546 2.78436,7.2546 h 0.005 C 1.07295,8.78604 1.7e-4,10.95379 1.7e-4,13.35937 c 0,4.6395 3.98394,8.40054 8.89838,8.40054 4.91443,0 8.89825,-3.76108 8.89825,-8.40054 -4e-5,-3.11099 -1.79273,-5.82495 -4.45471,-7.27692 z"
   id="path2" />
<path
   style="fill:#ffe388;stroke-width:0.0424999"
   d="m 13.82255,7.56359 h 0.005 c 0,0 -0.007,-0.004 -0.0182,-0.0114 C 13.46221,7.25253 13.08847,6.97917 12.68994,6.73641 11.36016,5.66031 9.322,3.62248 9.18366,1.152 9.17566,1.00257 9.04817,0.88723 8.8984,0.88723 v 0 0 C 8.7488,0.88723 8.62172,1.00257 8.61331,1.152 8.47514,3.62248 6.4368,5.66031 5.10719,6.73641 4.70867,6.97912 4.33476,7.25248 3.98779,7.55219 c -0.0111,0.007 -0.0182,0.0114 -0.0182,0.0114 h 0.005 C 2.34974,8.97301 1.3342,10.96783 1.3342,13.18161 c 0,2.34909 0.93398,4.43372 2.68608,5.84697 2.82582,2.27897 6.90275,2.33324 9.69321,0.0113 1.72087,-1.43195 2.74936,-3.55627 2.74936,-5.85823 0,-2.21378 -1.01566,-4.2086 -2.64069,-5.61802 z"
   id="path4" />
<ellipse
   style="fill:#f97762;stroke-width:0.0424999"
   cx="8.8989315"
   cy="13.600912"
   rx="5.7446289"
   ry="5.3584747"
   id="ellipse6" />
<g
   id="g108"
   transform="matrix(0.04249992,0,0,0.04249992,-1.98113,4e-5)">
	<circle
   style="fill:#d84b35"
   cx="266.491"
   cy="259.69699"
   r="12.281"
   id="circle8" />
	<circle
   style="fill:#d84b35"
   cx="291.91199"
   cy="259.69699"
   r="12.281"
   id="circle10" />
	<circle
   style="fill:#d84b35"
   cx="278.77301"
   cy="309.617"
   r="12.281"
   id="circle12" />
	<circle
   style="fill:#d84b35"
   cx="306.396"
   cy="284.409"
   r="12.281"
   id="circle14" />
	<circle
   style="fill:#d84b35"
   cx="330.95801"
   cy="282.91599"
   r="12.281"
   id="circle16" />
	<circle
   style="fill:#d84b35"
   cx="306.396"
   cy="234.489"
   r="12.281"
   id="circle18" />
	<circle
   style="fill:#d84b35"
   cx="258.802"
   cy="284.48401"
   r="12.281"
   id="circle20" />
	<circle
   style="fill:#d84b35"
   cx="254.21001"
   cy="334.42999"
   r="12.281"
   id="circle22" />
	<circle
   style="fill:#d84b35"
   cx="258.802"
   cy="359.62701"
   r="12.281"
   id="circle24" />
	<circle
   style="fill:#d84b35"
   cx="306.396"
   cy="334.42999"
   r="12.281"
   id="circle26" />
	<circle
   style="fill:#d84b35"
   cx="293.33099"
   cy="384.189"
   r="12.281"
   id="circle28" />
	<circle
   style="fill:#d84b35"
   cx="304.194"
   cy="309.617"
   r="12.281"
   id="circle30" />
	<circle
   style="fill:#d84b35"
   cx="291.91199"
   cy="213.41"
   r="12.281"
   id="circle32" />
	<circle
   style="fill:#d84b35"
   cx="283.345"
   cy="359.62701"
   r="12.281"
   id="circle34" />
	<circle
   style="fill:#d84b35"
   cx="330.95801"
   cy="334.42999"
   r="12.281"
   id="circle36" />
	<circle
   style="fill:#d84b35"
   cx="330.95801"
   cy="359.62701"
   r="12.281"
   id="circle38" />
	<circle
   style="fill:#d84b35"
   cx="295.608"
   cy="426.63199"
   r="12.281"
   id="circle40" />
	<circle
   style="fill:#d84b35"
   cx="318.677"
   cy="384.189"
   r="12.281"
   id="circle42" />
	<circle
   style="fill:#d84b35"
   cx="281.08701"
   cy="405.84"
   r="12.281"
   id="circle44" />
	<circle
   style="fill:#d84b35"
   cx="367.802"
   cy="347.34601"
   r="12.281"
   id="circle46" />
	<circle
   style="fill:#d84b35"
   cx="367.802"
   cy="297.698"
   r="12.281"
   id="circle48" />
	<circle
   style="fill:#d84b35"
   cx="355.521"
   cy="374.26001"
   r="12.281"
   id="circle50" />
	<circle
   style="fill:#d84b35"
   cx="362.987"
   cy="267.83499"
   r="12.281"
   id="circle52" />
	<circle
   style="fill:#d84b35"
   cx="330.95801"
   cy="250.47701"
   r="12.281"
   id="circle54" />
	<circle
   style="fill:#d84b35"
   cx="330.95801"
   cy="411.552"
   r="12.281"
   id="circle56" />
	<circle
   style="fill:#d84b35"
   cx="343.23999"
   cy="309.617"
   r="12.281"
   id="circle58" />
	<circle
   style="fill:#d84b35"
   cx="183.584"
   cy="286.01401"
   r="12.281"
   id="circle60" />
	<circle
   style="fill:#d84b35"
   cx="208.994"
   cy="286.01401"
   r="12.281"
   id="circle62" />
	<circle
   style="fill:#d84b35"
   cx="195.86501"
   cy="236.06799"
   r="12.281"
   id="circle64" />
	<circle
   style="fill:#d84b35"
   cx="223.485"
   cy="261.284"
   r="12.281"
   id="circle66" />
	<circle
   style="fill:#d84b35"
   cx="146.74001"
   cy="275.077"
   r="12.281"
   id="circle68" />
	<circle
   style="fill:#d84b35"
   cx="223.485"
   cy="311.211"
   r="12.281"
   id="circle70" />
	<circle
   style="fill:#d84b35"
   cx="175.894"
   cy="261.20599"
   r="12.281"
   id="circle72" />
	<circle
   style="fill:#d84b35"
   cx="159.01801"
   cy="347.34601"
   r="12.281"
   id="circle74" />
	<circle
   style="fill:#d84b35"
   cx="159.01801"
   cy="386.54099"
   r="12.281"
   id="circle76" />
	<circle
   style="fill:#d84b35"
   cx="235.77"
   cy="211.282"
   r="12.281"
   id="circle78" />
	<circle
   style="fill:#d84b35"
   cx="233.567"
   cy="347.34601"
   r="12.281"
   id="circle80" />
	<circle
   style="fill:#d84b35"
   cx="221.286"
   cy="236.06799"
   r="12.281"
   id="circle82" />
	<circle
   style="fill:#d84b35"
   cx="208.994"
   cy="332.302"
   r="12.281"
   id="circle84" />
	<circle
   style="fill:#d84b35"
   cx="195.86501"
   cy="359.62701"
   r="12.281"
   id="circle86" />
	<circle
   style="fill:#d84b35"
   cx="248.05099"
   cy="234.489"
   r="12.281"
   id="circle88" />
	<circle
   style="fill:#d84b35"
   cx="223.485"
   cy="381.27802"
   r="12.281"
   id="circle90" />
	<circle
   style="fill:#d84b35"
   cx="171.295"
   cy="311.211"
   r="12.281"
   id="circle92" />
	<circle
   style="fill:#d84b35"
   cx="180.448"
   cy="335.065"
   r="12.281"
   id="circle94" />
	<circle
   style="fill:#d84b35"
   cx="134.459"
   cy="311.211"
   r="12.281"
   id="circle96" />
	<circle
   style="fill:#d84b35"
   cx="248.05099"
   cy="430.40302"
   r="12.281"
   id="circle98" />
	<circle
   style="fill:#d84b35"
   cx="198.92599"
   cy="393.55899"
   r="12.281"
   id="circle100" />
	<circle
   style="fill:#d84b35"
   cx="196.716"
   cy="418.121"
   r="12.281"
   id="circle102" />
	<circle
   style="fill:#d84b35"
   cx="248.05099"
   cy="384.189"
   r="12.281"
   id="circle104" />
	<circle
   style="fill:#d84b35"
   cx="223.485"
   cy="418.121"
   r="12.281"
   id="circle106" />
</g>
<path
   style="opacity:0.1;stroke-width:0.0424999;enable-background:new"
   d="m 6.47321,5.47148 c -2.30672,1.99151 -4.64502,3.65891 -5.01057,6.77568 -0.37361,3.18613 1.26204,6.31863 4.1412,7.73375 1.93931,0.95315 4.77546,1.35992 8.80067,-0.0243 0.15754,-0.11739 0.3122,-0.23813 0.46086,-0.36521 C 11.18254,20.6556 8.54772,20.26613 6.71436,19.41499 3.8352,18.07836 2.19955,15.11978 2.57317,12.11023 2.93871,9.16622 5.27701,7.5913 7.58374,5.71021 9.62458,4.046 9.89063,1.68406 9.82922,0.24319 9.70423,0.09457 9.51863,0 9.31157,0 h -0.41612 -0.1428 -0.027 c 0.0107,1.53808 -0.3471,3.82627 -2.25246,5.47144 z"
   id="path110" />
<path
   style="opacity:0.2;stroke-width:0.0424999;enable-background:new"
   d="M 5.60384,19.98079 C 2.72468,18.56567 1.08903,15.43329 1.46264,12.24703 1.82819,9.13039 4.16649,7.46303 6.47321,5.47153 8.37857,3.82631 8.73633,1.53812 8.72554,4e-5 H 8.33637 C 7.99305,4e-5 7.70176,0.25611 7.66355,0.59721 7.37782,3.14206 5.33617,5.23178 3.98578,6.35582 3.5649,6.61949 3.16986,6.91665 2.80339,7.2422 2.79169,7.2502 2.78419,7.2546 2.78419,7.2546 h 0.005 C 1.07278,8.78604 0,10.95379 0,13.35937 c 0,4.6395 3.98394,8.40054 8.89838,8.40054 2.07922,0 3.99044,-0.6752 5.5054,-1.80353 -4.02504,1.38435 -6.86102,0.97775 -8.80033,0.0244 z"
   id="path112" />
<g
   style="opacity:0.3"
   id="g118"
   transform="matrix(0.04249992,0,0,0.04249992,-1.98113,4e-5)">
	<circle
   style="fill:#ffffff"
   cx="392.66299"
   cy="201.688"
   r="24.879999"
   id="circle114" />
	<circle
   style="fill:#ffffff"
   cx="422.19"
   cy="255.181"
   r="12.442"
   id="circle116" />
</g>
</svg>
