<?xml version="1.0" encoding="UTF-8" standalone="no"?>
<!-- Uploaded to: SVG Repo, www.svgrepo.com, Generator: SVG Repo Mixer Tools -->

<svg
   width="34.019375"
   height="34"
   viewBox="0 0 2.72155 2.72"
   aria-hidden="true"
   role="img"
   class="iconify iconify--emojione"
   preserveAspectRatio="xMidYMid meet"
   version="1.1"
   id="svg18"
   sodipodi:docname="peach.svg"
   inkscape:version="1.1.2 (0a00cf5339, 2022-02-04)"
   xmlns:inkscape="http://www.inkscape.org/namespaces/inkscape"
   xmlns:sodipodi="http://sodipodi.sourceforge.net/DTD/sodipodi-0.dtd"
   xmlns="http://www.w3.org/2000/svg"
   xmlns:svg="http://www.w3.org/2000/svg">
  <defs
     id="defs22" />
  <sodipodi:namedview
     id="namedview20"
     pagecolor="#ffffff"
     bordercolor="#666666"
     borderopacity="1.0"
     inkscape:pageshadow="2"
     inkscape:pageopacity="0.0"
     inkscape:pagecheckerboard="0"
     showgrid="false"
     inkscape:zoom="1.07375"
     inkscape:cx="17.229336"
     inkscape:cy="16.763679"
     inkscape:window-width="1920"
     inkscape:window-height="1011"
     inkscape:window-x="0"
     inkscape:window-y="1472"
     inkscape:window-maximized="1"
     inkscape:current-layer="svg18" />
  <path
     d="m 1.469637,0.32030967 c 0,-0.104326 -0.154221,-0.12247 -0.154221,-0.02268 0,0.117933 -0.0635,0.163293 -0.0635,0.226795 0,0.08165 0.181437,0.09525 0.181437,0.0091 0,-0.08165 0.03629,-0.07257 0.03629,-0.213188"
     fill="#8e6244"
     id="path2"
     style="stroke-width:0.0453592" />
  <path
     d="m 1.41067,0.30670167 c 0.127006,0 -0.104326,-0.163292 -0.104326,-0.01361 0,0.117934 -0.08618,0.1769 -0.04989,0.254011 0.08165,-0.09979 0.02268,-0.240404 0.154221,-0.240404"
     fill="#a87451"
     id="path4"
     style="stroke-width:0.0453592" />
  <path
     d="m 0.108862,1.3907857 c 0,-0.73481803 0.598741,-1.18387403 1.233769,-0.83914403 0.653172,-0.331122 1.378919,0.104326 1.378919,0.83914403 0,0.657708 -0.362874,1.029653 -0.816465,1.197482 -0.163293,0.05897 -0.471735,0.136077 -0.6441,0.131541 -0.127006,-0.0045 -0.12247,-0.06804 -0.24494,-0.104326 C 0.521631,2.4703337 0.108862,2.0893167 0.108862,1.3907857"
     fill="#ff9463"
     id="path6"
     style="stroke-width:0.0453592" />
  <path
     d="m 1.378919,0.28402267 c -0.0045,0 -0.0091,-0.0045 -0.01361,-0.0091 -0.09072,-0.136077 -0.176901,-0.104326 -0.176901,-0.104326 l -0.0091,-0.04536 c 0,0 0.108862,-0.03629 0.217724,0.117934 0.0045,0.0091 0.0045,0.02721 0,0.03175 -0.0091,0.0091 -0.01361,0.0091 -0.01814,0.0091"
     fill="#8cc63e"
     id="path8"
     style="stroke-width:0.0453592" />
  <path
     d="m 1.01151,0.00279567 c -0.453592,-0.04536 -0.920791,0.476271 -0.920791,0.476271 0,0 0.317514,-0.117934 0.589669,-0.0635 0.276691,0.05897 0.52163,-0.272154 0.52163,-0.272154 0,0 -0.0635,-0.131542 -0.190508,-0.140614 z"
     fill="#7fb539"
     id="path10"
     style="stroke-width:0.0453592" />
  <path
     d="M 0.589669,0.36113267 C 0.353802,0.67864767 0,0.86008367 0,0.86008367 c 0,0 0.675852,0.06804 1.084084,-0.39916 0.117934,-0.131542 0.117934,-0.32205 0.117934,-0.32205 0,0 -0.371945,-0.09979 -0.612349,0.222259 z"
     fill="#8cc63e"
     id="path12"
     style="stroke-width:0.0453592" />
  <path
     d="m 1.202018,0.13887367 c -0.04536,0.0091 -0.09979,0.02268 -0.149685,0.04536 -0.05443,0.02268 -0.104326,0.04989 -0.158757,0.08618 -0.104326,0.06804 -0.204116,0.154221 -0.294835,0.231332 -0.09525,0.08165 -0.190508,0.154221 -0.290298,0.217724 -0.104326,0.05443 -0.204117,0.104326 -0.308443,0.140613 0.04989,-0.01361 0.09979,-0.02721 0.149686,-0.04989 0.0499,-0.02268 0.104326,-0.04536 0.158757,-0.07711 0.108862,-0.05897 0.208652,-0.140613 0.303906,-0.217723 0.09525,-0.08165 0.185973,-0.163293 0.285763,-0.231332 0.09979,-0.06804 0.204116,-0.113398 0.303906,-0.145149"
     fill="#7fb539"
     id="path14"
     style="stroke-width:0.0453592" />
  <path
     d="m 1.746328,1.4452167 c 0.01814,0.163293 0.01361,0.32205 -0.03175,0.476271 -0.04536,0.154221 -0.127005,0.294835 -0.263083,0.417304 0.190509,-0.07257 0.331122,-0.213188 0.403697,-0.371945 0.07711,-0.158757 0.09979,-0.340193 0.07711,-0.517094 -0.02268,-0.176901 -0.08618,-0.358337 -0.195044,-0.52163003 -0.104326,-0.163293 -0.263083,-0.32205 -0.467199,-0.412768 0.158757,0.136077 0.258547,0.290298 0.335657,0.449055 C 1.678296,1.1186307 1.72365,1.2819237 1.74633,1.4452167"
     fill="#d97448"
     id="path16"
     style="stroke-width:0.0453592" />
</svg>
