<?xml version="1.0" encoding="UTF-8" standalone="no"?>
<!-- Uploaded to: SVG Repo, www.svgrepo.com, Generator: SVG Repo Mixer Tools -->

<svg
   width="24.878046"
   height="34"
   viewBox="0 0 31.843899 43.52"
   class="icon"
   version="1.1"
   id="svg10"
   sodipodi:docname="plum.svg"
   inkscape:version="1.1.2 (0a00cf5339, 2022-02-04)"
   xmlns:inkscape="http://www.inkscape.org/namespaces/inkscape"
   xmlns:sodipodi="http://sodipodi.sourceforge.net/DTD/sodipodi-0.dtd"
   xmlns="http://www.w3.org/2000/svg"
   xmlns:svg="http://www.w3.org/2000/svg">
  <defs
     id="defs14" />
  <sodipodi:namedview
     id="namedview12"
     pagecolor="#ffffff"
     bordercolor="#666666"
     borderopacity="1.0"
     inkscape:pageshadow="2"
     inkscape:pageopacity="0.0"
     inkscape:pagecheckerboard="0"
     showgrid="false"
     inkscape:zoom="1.07375"
     inkscape:cx="12.572759"
     inkscape:cy="9.3131548"
     inkscape:window-width="1920"
     inkscape:window-height="1011"
     inkscape:window-x="0"
     inkscape:window-y="32"
     inkscape:window-maximized="1"
     inkscape:current-layer="svg10" />
  <path
     d="m 20.1678,0 c 0,0 -3.18439,3.29053 -3.18439,9.55317"
     fill="#ffffff"
     id="path2"
     style="stroke-width:0.0497561" />
  <path
     d="M 31.8439,23.35219 C 31.8439,32.16234 24.7321,43.52 15.92195,43.52 7.1118,43.52 0,32.16234 0,23.35219 0,12.94985 4.67044,5.30731 16.98341,9.55317 26.96117,5.20117 31.8439,14.54205 31.8439,23.35219 Z"
     fill="#9c27b0"
     id="path4"
     style="stroke-width:0.0497561" />
  <path
     d="m 25.36897,26.112 c 0.2123,-0.53074 0.2123,-1.16761 0.2123,-1.69834 l 0.21229,-1.69835 v -1.80448 c 0,-0.63688 0,-1.16761 -0.10615,-1.69835 -0.10614,-0.53073 -0.21229,-1.16761 -0.31844,-1.69834 -0.10614,-0.53073 -0.31843,-1.06146 -0.42458,-1.59219 -0.31844,-1.06147 -0.74303,-2.01678 -1.16761,-3.07825 -0.53073,-0.84917 -0.95532,-1.80448 -1.48605,-2.54751 -0.42458,-0.63688 -0.84917,-1.27375 -1.3799,-1.80449 -1.27376,0.10615 -2.54751,0.42459 -4.03356,1.06147 5.51961,4.24585 6.68722,12.63141 6.68722,13.16214 v 1.5922 c 0,0.53073 0,1.06146 -0.10615,1.59219 -0.10615,0.53074 -0.10615,1.06147 -0.21229,1.5922 0,0.53073 -0.10615,1.06146 -0.2123,1.48605 -0.21229,0.95531 -0.42458,1.91063 -0.74302,2.86595 -0.31844,0.84917 -0.63688,1.69834 -0.95532,2.44136 -0.10614,0.42459 -0.31844,0.74303 -0.42458,1.06147 -0.21229,0.31844 -0.31844,0.63688 -0.53073,0.95532 -0.31844,0.63687 -0.53074,1.16761 -0.74303,1.59219 -0.31844,0.84917 -0.53073,1.3799 -0.53073,1.3799 0,0 0.31844,-0.42458 0.84917,-1.27375 0.31844,-0.42459 0.63688,-0.84917 0.95532,-1.48605 0.21229,-0.31844 0.42458,-0.63688 0.63688,-0.84917 0.21229,-0.31844 0.31844,-0.63688 0.53073,-1.06147 0.42458,-0.74302 0.84917,-1.59219 1.27375,-2.44136 0.42459,-0.84917 0.74303,-1.91064 1.06147,-2.86595 0.21229,-0.53073 0.31844,-1.06147 0.42458,-1.5922 0.2123,-0.53073 0.42459,-1.06146 0.53073,-1.59219 z"
     fill="#4a148c"
     id="path6"
     style="stroke-width:0.0497561" />
  <path
     d="m 16.98341,9.55317 c 0,0 -1.3799,-13.2683 -14.86048,-8.49171 1.48604,13.79902 14.86048,8.49171 14.86048,8.49171 z"
     fill="#4caf50"
     id="path8"
     style="stroke-width:0.0497561" />
</svg>
