<?xml version="1.0" encoding="UTF-8" standalone="no"?>
<svg
   height="34.000008"
   width="31.730173"
   version="1.0"
   id="svg2"
   sodipodi:version="0.32"
   inkscape:version="1.1.2 (0a00cf5339, 2022-02-04)"
   sodipodi:docname="quince.svg"
   inkscape:export-filename="/Users/olivier/Desktop/Blason Rouge/Blason_Vide_3D.png"
   inkscape:export-xdpi="144"
   inkscape:export-ydpi="144"
   inkscape:output_extension="org.inkscape.output.svg.inkscape"
   xmlns:inkscape="http://www.inkscape.org/namespaces/inkscape"
   xmlns:sodipodi="http://sodipodi.sourceforge.net/DTD/sodipodi-0.dtd"
   xmlns="http://www.w3.org/2000/svg"
   xmlns:svg="http://www.w3.org/2000/svg">
  <defs
     id="defs875" />
  <sodipodi:namedview
     id="namedview873"
     pagecolor="#ffffff"
     bordercolor="#111111"
     borderopacity="1"
     inkscape:showpageshadow="0"
     inkscape:pageopacity="0"
     inkscape:pagecheckerboard="1"
     inkscape:deskcolor="#d1d1d1"
     showgrid="false"
     inkscape:zoom="4"
     inkscape:cx="-0.125"
     inkscape:cy="35.5"
     inkscape:window-width="1920"
     inkscape:window-height="1011"
     inkscape:window-x="0"
     inkscape:window-y="1472"
     inkscape:window-maximized="1"
     inkscape:current-layer="layer1"
     inkscape:pageshadow="2" />
  <g
     id="layer1"
     inkscape:groupmode="layer"
     style="stroke:#000000"
     transform="translate(-453.80013,-288.92675)">
    <path
       sodipodi:nodetypes="cccccccccccccccccccccccccccccccccc"
       id="path10049"
       d="m 481.52849,300.53107 c -2.0979,-0.10771 -3.58069,0.43201 -4.08094,0.74353 -0.50025,0.31153 -1.14915,0.87932 -1.72789,1.21599 -0.25722,-0.37113 -0.19218,-0.50258 -0.42598,-0.96718 1.33626,-0.72029 2.83453,-1.21714 3.75081,-2.07742 l -0.99869,-1.18074 c -2.45482,2.28488 -8.31292,2.41708 -10.38105,2.12641 0.32271,-0.29173 0.64543,-0.58346 0.96814,-0.8752 1.33897,0.12026 1.93223,0.1059 2.71853,-0.16264 3.80506,-1.38506 2.67995,-2.88059 2.07569,-5.27442 -0.72218,-2.36036 -3.7886,-2.95382 -5.74687,-4.78648 -1.27284,1.6304 -4.21004,3.181 -3.59373,5.18922 0.33097,2.03093 1.44275,3.79774 3.83383,4.79423 -0.46575,0.34478 -0.76986,0.77232 -1.4251,1.02235 -3.82794,-0.31933 -7.65311,-1.3682 -10.73472,-3.0903 l 0.23235,1.77363 c 1.89152,0.68249 3.63046,1.31085 5.10855,1.81462 l -1.18178,0.74127 c -1.29774,-0.35094 -1.88204,-0.43772 -2.70304,-0.30981 -3.98776,0.70327 -3.14576,2.36282 -2.96637,4.8252 0.30134,2.44991 3.22267,3.57878 4.83294,5.72364 1.53662,-1.3846 4.70392,-2.40743 4.44569,-4.49216 0.0267,-2.05755 -0.76142,-3.9863 -2.94314,-5.38285 l 1.32442,-0.84422 c 0.75493,0.25151 1.48325,0.48613 2.16863,0.69706 0.21669,0.80468 0.88461,3.61048 1.92853,4.8252 0.64062,-0.13705 1.44197,-0.48113 1.56451,-1.19274 -1.08811,-0.51374 -1.72239,-1.94188 -1.92853,-3.38462 2.72405,0.28696 6.26626,0.15727 8.90687,-0.20137 l 0.69706,1.28569 c -0.57096,1.21709 -0.76567,1.77937 -0.78225,2.6101 1.1e-4,4.0493 1.78818,3.49771 4.24431,3.74863 2.46502,0.12866 4.07527,-2.55076 6.46717,-3.76412 -1.09673,-1.75371 -1.55004,-5.04279 -3.64795,-5.1505 z"
       style="fill:#5ab532;stroke-width:0.495687" />
    <g
       id="g1141"
       style="fill:none;stroke-width:1"
       transform="matrix(0.24784344,0,0,0.24784344,353.26177,230.10481)">
      <g
         transform="translate(13.374024,1.9335937)"
         id="g5507">
        <path
           d="m 447.94922,236.54296 c 21.48979,31.30187 5.49666,35.57441 2.9004,40.92774"
           id="path5491"
           sodipodi:nodetypes="cc" />
        <path
           d="m 460.97268,245.16357 c 5.21538,10.67687 0.98494,11.72675 -2.09472,14.82422"
           id="path5495"
           sodipodi:nodetypes="cc" />
        <path
           d="m 471.13064,256.52343 c -3.00239,7.45422 -8.68303,10.75996 -13.05175,11.7627"
           id="path5497"
           sodipodi:nodetypes="cc" />
        <path
           d="m 473.48876,266.11084 c -3.00239,7.45422 -14.48381,5.76484 -18.85253,6.76758"
           id="path5499"
           sodipodi:nodetypes="cc" />
        <path
           d="m 456.97265,253.86476 c -11.26101,0.11777 -13.90108,-6.32604 -14.50195,-11.27929"
           id="path5501"
           sodipodi:nodetypes="cc" />
        <path
           d="m 458.58398,264.74041 c -7.44216,-2.13809 -16.9626,0.7638 -22.39746,-15.62988"
           id="path5503"
           sodipodi:nodetypes="cc" />
        <path
           d="m 453.10547,273.92499 c -6.74929,-5.68302 -9.87276,-1.65319 -16.43555,-7.8955"
           id="path5505"
           sodipodi:nodetypes="cc" />
      </g>
      <g
         transform="rotate(-170,441.67713,284.12445)"
         id="g5517">
        <path
           d="m 447.94922,236.54296 c 21.48979,31.30187 5.49666,35.57441 2.9004,40.92774"
           id="path5521"
           sodipodi:nodetypes="cc" />
        <path
           d="m 460.97268,245.16357 c 5.21538,10.67687 0.98494,11.72675 -2.09472,14.82422"
           id="path5523"
           sodipodi:nodetypes="cc" />
        <path
           d="m 471.13064,256.52343 c -3.00239,7.45422 -8.68303,10.75996 -13.05175,11.7627"
           id="path5525"
           sodipodi:nodetypes="cc" />
        <path
           d="m 473.48876,266.11084 c -3.00239,7.45422 -14.48381,5.76484 -18.85253,6.76758"
           id="path5527"
           sodipodi:nodetypes="cc" />
        <path
           d="m 456.97265,253.86476 c -11.26101,0.11777 -13.90108,-6.32604 -14.50195,-11.27929"
           id="path5529"
           sodipodi:nodetypes="cc" />
        <path
           d="m 458.58398,264.74041 c -7.44216,-2.13809 -16.9626,0.7638 -22.39746,-15.62988"
           id="path5531"
           sodipodi:nodetypes="cc" />
        <path
           d="m 453.10547,273.92499 c -6.74929,-5.68302 -9.87276,-1.65319 -16.43555,-7.8955"
           id="path5533"
           sodipodi:nodetypes="cc" />
      </g>
      <g
         transform="rotate(110,466.43365,300.30966)"
         id="g5535">
        <path
           d="m 473.48876,266.11084 c -3.00239,7.45422 -14.48381,5.76484 -18.85253,6.76758"
           id="path5545"
           sodipodi:nodetypes="cc" />
        <path
           d="m 447.94922,236.54296 c 21.48979,31.30187 5.49666,35.57441 2.9004,40.92774"
           id="path5539"
           sodipodi:nodetypes="cc" />
        <path
           d="m 460.97268,245.16357 c 5.21538,10.67687 0.98494,11.72675 -2.09472,14.82422"
           id="path5541"
           sodipodi:nodetypes="cc" />
        <path
           d="m 471.13064,256.52343 c -3.00239,7.45422 -8.68303,10.75996 -13.05175,11.7627"
           id="path5543"
           sodipodi:nodetypes="cc" />
        <path
           d="m 456.97265,253.86476 c -11.26101,0.11777 -13.90108,-6.32604 -14.50195,-11.27929"
           id="path5547"
           sodipodi:nodetypes="cc" />
        <path
           d="m 458.58398,264.74041 c -7.44216,-2.13809 -16.9626,0.7638 -22.39746,-15.62988"
           id="path5549"
           sodipodi:nodetypes="cc" />
        <path
           d="m 453.10547,273.92499 c -6.74929,-5.68302 -8.89868,-1.09609 -15.46147,-7.3384"
           id="path5551"
           sodipodi:nodetypes="cc" />
      </g>
    </g>
    <path
       sodipodi:nodetypes="cccccc"
       d="m 469.93325,305.14576 c -2.41597,-1.61482 -6.23393,0.14446 -5.37756,3.8593 0.65266,2.33153 0.23835,2.57488 0.93067,6.82611 1.11699,6.85911 8.63011,8.91385 12.3015,4.573 5.54136,-2.02509 3.96189,-10.18081 -2.18171,-12.55311 -2.14831,-0.82956 -3.21568,-0.6816 -5.6729,-2.7053 z"
       style="fill:#fcef3c;stroke-width:0.495687"
       id="path9162" />
    <path
       sodipodi:nodetypes="ccc"
       id="path5489"
       d="m 475.25989,320.44762 c 0.44364,-0.51259 1.24617,-0.6547 1.19807,-1.43769 0.56707,0.52557 1.50298,-0.63897 2.15653,-0.63897"
       style="fill:none;stroke-width:0.247843" />
  </g>
</svg>
