<?xml version="1.0" encoding="UTF-8" standalone="no"?>
<!-- Uploaded to: SVG Repo, www.svgrepo.com, Generator: SVG Repo Mixer Tools -->

<svg
   width="27.380001"
   height="33.076817"
   viewBox="0 0 0.82140003 0.99230451"
   version="1.1"
   id="svg6"
   sodipodi:docname="walnut.svg"
   inkscape:version="1.1.2 (0a00cf5339, 2022-02-04)"
   xmlns:inkscape="http://www.inkscape.org/namespaces/inkscape"
   xmlns:sodipodi="http://sodipodi.sourceforge.net/DTD/sodipodi-0.dtd"
   xmlns="http://www.w3.org/2000/svg"
   xmlns:svg="http://www.w3.org/2000/svg"
   xmlns:rdf="http://www.w3.org/1999/02/22-rdf-syntax-ns#"
   xmlns:cc="http://creativecommons.org/ns#"
   xmlns:dc="http://purl.org/dc/elements/1.1/">
  <defs
     id="defs10" />
  <sodipodi:namedview
     id="namedview8"
     pagecolor="#ffffff"
     bordercolor="#666666"
     borderopacity="1.0"
     inkscape:pageshadow="2"
     inkscape:pageopacity="0.0"
     inkscape:pagecheckerboard="0"
     showgrid="false"
     inkscape:zoom="13.023961"
     inkscape:cx="36.048941"
     inkscape:cy="23.341593"
     inkscape:window-width="1920"
     inkscape:window-height="1011"
     inkscape:window-x="0"
     inkscape:window-y="32"
     inkscape:window-maximized="1"
     inkscape:current-layer="svg6" />
  <title
     id="title2">Walnut</title>
  <path
     d="m 0.41070002,0.97730451 c 0.28264299,0 0.3957,-0.22611402 0.3957,-0.445578 0,-0.23054801 -0.13190001,-0.40235 -0.3957,-0.515407 C 0.1469,0.12937651 0.015,0.3011785 0.015,0.53172651 c 0,0.21946398 0.113057,0.445578 0.39570002,0.445578 z"
     style="fill:#ff7f2a;fill-opacity:1;fill-rule:evenodd;stroke:#000000;stroke-width:0.03;stroke-linecap:square;stroke-miterlimit:4;stroke-dasharray:none"
     id="path2911" />
  <path
     d="m 0.40883149,0.18163867 0.06003,0.06001 c 0.01581,-0.0084 0.03387,-0.01318 0.05303,-0.01318 0.06244,0 0.113057,0.05062 0.113057,0.113057 0,0.0233 -0.007,0.04495 -0.01913,0.06294 0.04405,0.01534 0.07565,0.0573 0.07565,0.106645 0,0.0206 -0.0055,0.03991 -0.01514,0.05655 0.0096,0.01659 0.01514,0.03591 0.01514,0.05651 0,0.06244 -0.05062,0.11305696 -0.113057,0.11305696 0,0.06244 -0.05062,0.113057 -0.113057,0.113057 -0.0206,0 -0.0399,-0.0055 -0.05653,-0.01513 -0.01658,0.0096 -0.03591,0.01513 -0.05652,0.01513 -0.06244,0 -0.113057,-0.05062 -0.113057,-0.113057 v 0 l -0.0084,-3.1e-4 c -0.0585,-0.0043 -0.10462,-0.05314 -0.10462,-0.11274696 0,-0.0206 0.0055,-0.03991 0.01514,-0.05655 -0.0096,-0.0166 -0.01514,-0.03591 -0.01514,-0.05651 0,-0.04934 0.03161,-0.0913 0.07568,-0.106733 -0.01211,-0.0179 -0.01915,-0.03956 -0.01915,-0.06285 0,-0.06244 0.05062,-0.113057 0.113057,-0.113057 0.01916,0 0.03721,0.0048 0.05303,0.01318 z m 0,0.04683 v 0.56528496 m -0.193,-0.53217196 c -0.04415,0.04415 -0.04415,0.115735 0,0.159887 0.02635,0.02635 0.06247,0.03697 0.0967,0.03187 m 0.232771,0.36382796 c 0.04415,-0.04415 0.04415,-0.11573496 0,-0.15988696 m 0.110431,-0.22874 c -0.03311,-0.03311 -0.0868,-0.03311 -0.119915,0 m -0.373087,0.274768 c 0.03311,0.03311 0.0868,0.03311 0.119915,0"
     id="Combined-Shape"
     stroke="#000000"
     style="fill:#c47312;fill-opacity:1;fill-rule:evenodd;stroke-width:0.03;stroke-linecap:square;stroke-miterlimit:4;stroke-dasharray:none"
     sodipodi:nodetypes="ccsscscscscssccscscssccccccccccccc" />
  <metadata
     id="metadata827">
    <rdf:RDF>
      <cc:Work
         rdf:about="">
        <dc:title>Walnut</dc:title>
      </cc:Work>
    </rdf:RDF>
  </metadata>
</svg>
